<mxfile host="Electron" modified="2023-12-13T06:01:27.598Z" agent="Mozilla/5.0 (Windows NT 10.0; Win64; x64) AppleWebKit/537.36 (KHTML, like Gecko) draw.io/22.1.2 Chrome/114.0.5735.289 Electron/25.9.4 Safari/537.36" etag="ZecftiOQJgr71k2VJ1LB" version="22.1.2" type="device">
  <diagram name="第 1 页" id="kI6iTxKprnbHdXc8Uhru">
    <mxGraphModel dx="671" dy="348" grid="1" gridSize="10" guides="1" tooltips="1" connect="1" arrows="1" fold="1" page="1" pageScale="1" pageWidth="10000" pageHeight="10000" math="0" shadow="0">
      <root>
        <mxCell id="0" />
        <mxCell id="1" parent="0" />
        <mxCell id="eFA8QRlCZNBP7HLmfmJn-1" value="-1" style="rounded=0;whiteSpace=wrap;html=1;fontStyle=1;fontFamily=Comic Sans MS;strokeWidth=2;" vertex="1" parent="1">
          <mxGeometry x="1160" y="400" width="40" height="40" as="geometry" />
        </mxCell>
        <mxCell id="eFA8QRlCZNBP7HLmfmJn-2" value="-1" style="rounded=0;whiteSpace=wrap;html=1;fontStyle=1;fontFamily=Comic Sans MS;strokeWidth=2;" vertex="1" parent="1">
          <mxGeometry x="1200" y="400" width="40" height="40" as="geometry" />
        </mxCell>
        <mxCell id="eFA8QRlCZNBP7HLmfmJn-3" value="-1" style="rounded=0;whiteSpace=wrap;html=1;fontStyle=1;fontFamily=Comic Sans MS;strokeWidth=2;" vertex="1" parent="1">
          <mxGeometry x="1240" y="400" width="40" height="40" as="geometry" />
        </mxCell>
        <mxCell id="eFA8QRlCZNBP7HLmfmJn-4" value="-1" style="rounded=0;whiteSpace=wrap;html=1;fontStyle=1;fontFamily=Comic Sans MS;strokeWidth=2;" vertex="1" parent="1">
          <mxGeometry x="1280" y="400" width="40" height="40" as="geometry" />
        </mxCell>
        <mxCell id="eFA8QRlCZNBP7HLmfmJn-5" value="-1" style="rounded=0;whiteSpace=wrap;html=1;fontStyle=1;fontFamily=Comic Sans MS;strokeWidth=2;" vertex="1" parent="1">
          <mxGeometry x="1320" y="400" width="40" height="40" as="geometry" />
        </mxCell>
        <mxCell id="eFA8QRlCZNBP7HLmfmJn-6" value="-1" style="rounded=0;whiteSpace=wrap;html=1;fontStyle=1;fontFamily=Comic Sans MS;strokeWidth=2;" vertex="1" parent="1">
          <mxGeometry x="1360" y="400" width="40" height="40" as="geometry" />
        </mxCell>
        <mxCell id="eFA8QRlCZNBP7HLmfmJn-7" value="-1" style="rounded=0;whiteSpace=wrap;html=1;fontStyle=1;fontFamily=Comic Sans MS;strokeWidth=2;" vertex="1" parent="1">
          <mxGeometry x="1400" y="400" width="40" height="40" as="geometry" />
        </mxCell>
        <mxCell id="eFA8QRlCZNBP7HLmfmJn-8" value="-1" style="rounded=0;whiteSpace=wrap;html=1;fontStyle=1;fontFamily=Comic Sans MS;strokeWidth=2;" vertex="1" parent="1">
          <mxGeometry x="1440" y="400" width="40" height="40" as="geometry" />
        </mxCell>
        <mxCell id="eFA8QRlCZNBP7HLmfmJn-9" value="[0]" style="text;html=1;align=center;verticalAlign=middle;resizable=0;points=[];autosize=1;strokeColor=none;fillColor=none;fontStyle=1;fontFamily=Comic Sans MS;strokeWidth=2;" vertex="1" parent="1">
          <mxGeometry x="1160" y="440" width="40" height="30" as="geometry" />
        </mxCell>
        <mxCell id="eFA8QRlCZNBP7HLmfmJn-10" value="[1]" style="text;html=1;align=center;verticalAlign=middle;resizable=0;points=[];autosize=1;strokeColor=none;fillColor=none;fontStyle=1;fontFamily=Comic Sans MS;strokeWidth=2;" vertex="1" parent="1">
          <mxGeometry x="1200" y="440" width="40" height="30" as="geometry" />
        </mxCell>
        <mxCell id="eFA8QRlCZNBP7HLmfmJn-11" value="[2]" style="text;html=1;align=center;verticalAlign=middle;resizable=0;points=[];autosize=1;strokeColor=none;fillColor=none;fontStyle=1;fontFamily=Comic Sans MS;strokeWidth=2;" vertex="1" parent="1">
          <mxGeometry x="1240" y="440" width="40" height="30" as="geometry" />
        </mxCell>
        <mxCell id="eFA8QRlCZNBP7HLmfmJn-12" value="[3]" style="text;html=1;align=center;verticalAlign=middle;resizable=0;points=[];autosize=1;strokeColor=none;fillColor=none;fontStyle=1;fontFamily=Comic Sans MS;strokeWidth=2;" vertex="1" parent="1">
          <mxGeometry x="1280" y="440" width="40" height="30" as="geometry" />
        </mxCell>
        <mxCell id="eFA8QRlCZNBP7HLmfmJn-13" value="[4]" style="text;html=1;align=center;verticalAlign=middle;resizable=0;points=[];autosize=1;strokeColor=none;fillColor=none;fontStyle=1;fontFamily=Comic Sans MS;strokeWidth=2;" vertex="1" parent="1">
          <mxGeometry x="1320" y="440" width="40" height="30" as="geometry" />
        </mxCell>
        <mxCell id="eFA8QRlCZNBP7HLmfmJn-14" value="[5]" style="text;html=1;align=center;verticalAlign=middle;resizable=0;points=[];autosize=1;strokeColor=none;fillColor=none;fontStyle=1;fontFamily=Comic Sans MS;strokeWidth=2;" vertex="1" parent="1">
          <mxGeometry x="1360" y="440" width="40" height="30" as="geometry" />
        </mxCell>
        <mxCell id="eFA8QRlCZNBP7HLmfmJn-16" value="[6]" style="text;html=1;align=center;verticalAlign=middle;resizable=0;points=[];autosize=1;strokeColor=none;fillColor=none;fontStyle=1;fontFamily=Comic Sans MS;strokeWidth=2;" vertex="1" parent="1">
          <mxGeometry x="1400" y="440" width="40" height="30" as="geometry" />
        </mxCell>
        <mxCell id="eFA8QRlCZNBP7HLmfmJn-17" value="[7]" style="text;html=1;align=center;verticalAlign=middle;resizable=0;points=[];autosize=1;strokeColor=none;fillColor=none;fontStyle=1;fontFamily=Comic Sans MS;strokeWidth=2;" vertex="1" parent="1">
          <mxGeometry x="1440" y="440" width="40" height="30" as="geometry" />
        </mxCell>
        <mxCell id="eFA8QRlCZNBP7HLmfmJn-18" value="-1" style="rounded=0;whiteSpace=wrap;html=1;fontStyle=1;fontFamily=Comic Sans MS;strokeWidth=2;" vertex="1" parent="1">
          <mxGeometry x="1480" y="400" width="40" height="40" as="geometry" />
        </mxCell>
        <mxCell id="eFA8QRlCZNBP7HLmfmJn-19" value="-1" style="rounded=0;whiteSpace=wrap;html=1;fontStyle=1;fontFamily=Comic Sans MS;strokeWidth=2;" vertex="1" parent="1">
          <mxGeometry x="1520" y="400" width="40" height="40" as="geometry" />
        </mxCell>
        <mxCell id="eFA8QRlCZNBP7HLmfmJn-20" value="[8]" style="text;html=1;align=center;verticalAlign=middle;resizable=0;points=[];autosize=1;strokeColor=none;fillColor=none;fontStyle=1;fontFamily=Comic Sans MS;strokeWidth=2;" vertex="1" parent="1">
          <mxGeometry x="1480" y="440" width="40" height="30" as="geometry" />
        </mxCell>
        <mxCell id="eFA8QRlCZNBP7HLmfmJn-21" value="[9]" style="text;html=1;align=center;verticalAlign=middle;resizable=0;points=[];autosize=1;strokeColor=none;fillColor=none;fontStyle=1;fontFamily=Comic Sans MS;strokeWidth=2;" vertex="1" parent="1">
          <mxGeometry x="1520" y="440" width="40" height="30" as="geometry" />
        </mxCell>
        <mxCell id="eFA8QRlCZNBP7HLmfmJn-34" style="rounded=0;orthogonalLoop=1;jettySize=auto;html=1;" edge="1" parent="1" source="eFA8QRlCZNBP7HLmfmJn-22" target="eFA8QRlCZNBP7HLmfmJn-24">
          <mxGeometry relative="1" as="geometry" />
        </mxCell>
        <mxCell id="eFA8QRlCZNBP7HLmfmJn-35" style="rounded=0;orthogonalLoop=1;jettySize=auto;html=1;" edge="1" parent="1" source="eFA8QRlCZNBP7HLmfmJn-22" target="eFA8QRlCZNBP7HLmfmJn-25">
          <mxGeometry relative="1" as="geometry" />
        </mxCell>
        <mxCell id="eFA8QRlCZNBP7HLmfmJn-36" style="rounded=0;orthogonalLoop=1;jettySize=auto;html=1;" edge="1" parent="1" source="eFA8QRlCZNBP7HLmfmJn-22" target="eFA8QRlCZNBP7HLmfmJn-26">
          <mxGeometry relative="1" as="geometry" />
        </mxCell>
        <mxCell id="eFA8QRlCZNBP7HLmfmJn-22" value="[0]" style="text;html=1;align=center;verticalAlign=middle;resizable=0;points=[];autosize=1;strokeColor=#6F0000;fillColor=#a20025;fontStyle=1;fontFamily=Comic Sans MS;strokeWidth=2;fontColor=#ffffff;" vertex="1" parent="1">
          <mxGeometry x="1200" y="480" width="40" height="30" as="geometry" />
        </mxCell>
        <mxCell id="eFA8QRlCZNBP7HLmfmJn-24" value="[6]" style="text;html=1;align=center;verticalAlign=middle;resizable=0;points=[];autosize=1;strokeColor=#6F0000;fillColor=#a20025;fontStyle=1;fontFamily=Comic Sans MS;strokeWidth=2;fontColor=#ffffff;" vertex="1" parent="1">
          <mxGeometry x="1150" y="540" width="40" height="30" as="geometry" />
        </mxCell>
        <mxCell id="eFA8QRlCZNBP7HLmfmJn-25" value="[7]" style="text;html=1;align=center;verticalAlign=middle;resizable=0;points=[];autosize=1;strokeColor=#6F0000;fillColor=#a20025;fontStyle=1;fontFamily=Comic Sans MS;strokeWidth=2;fontColor=#ffffff;" vertex="1" parent="1">
          <mxGeometry x="1210" y="540" width="40" height="30" as="geometry" />
        </mxCell>
        <mxCell id="eFA8QRlCZNBP7HLmfmJn-26" value="[8]" style="text;html=1;align=center;verticalAlign=middle;resizable=0;points=[];autosize=1;strokeColor=#6F0000;fillColor=#a20025;fontStyle=1;fontFamily=Comic Sans MS;strokeWidth=2;fontColor=#ffffff;" vertex="1" parent="1">
          <mxGeometry x="1260" y="540" width="40" height="30" as="geometry" />
        </mxCell>
        <mxCell id="eFA8QRlCZNBP7HLmfmJn-37" style="rounded=0;orthogonalLoop=1;jettySize=auto;html=1;" edge="1" parent="1" source="eFA8QRlCZNBP7HLmfmJn-27" target="eFA8QRlCZNBP7HLmfmJn-29">
          <mxGeometry relative="1" as="geometry" />
        </mxCell>
        <mxCell id="eFA8QRlCZNBP7HLmfmJn-38" style="rounded=0;orthogonalLoop=1;jettySize=auto;html=1;" edge="1" parent="1" source="eFA8QRlCZNBP7HLmfmJn-27" target="eFA8QRlCZNBP7HLmfmJn-30">
          <mxGeometry relative="1" as="geometry" />
        </mxCell>
        <mxCell id="eFA8QRlCZNBP7HLmfmJn-27" value="[1]" style="text;html=1;align=center;verticalAlign=middle;resizable=0;points=[];autosize=1;strokeColor=#001DBC;fillColor=#0050ef;fontStyle=1;fontFamily=Comic Sans MS;strokeWidth=2;fontColor=#ffffff;" vertex="1" parent="1">
          <mxGeometry x="1360" y="480" width="40" height="30" as="geometry" />
        </mxCell>
        <mxCell id="eFA8QRlCZNBP7HLmfmJn-29" value="[4]" style="text;html=1;align=center;verticalAlign=middle;resizable=0;points=[];autosize=1;strokeColor=#001DBC;fillColor=#0050ef;fontStyle=1;fontFamily=Comic Sans MS;strokeWidth=2;fontColor=#ffffff;" vertex="1" parent="1">
          <mxGeometry x="1320" y="540" width="40" height="30" as="geometry" />
        </mxCell>
        <mxCell id="eFA8QRlCZNBP7HLmfmJn-30" value="[9]" style="text;html=1;align=center;verticalAlign=middle;resizable=0;points=[];autosize=1;strokeColor=#001DBC;fillColor=#0050ef;fontStyle=1;fontFamily=Comic Sans MS;strokeWidth=2;fontColor=#ffffff;" vertex="1" parent="1">
          <mxGeometry x="1390" y="540" width="40" height="30" as="geometry" />
        </mxCell>
        <mxCell id="eFA8QRlCZNBP7HLmfmJn-31" value="[3]" style="text;html=1;align=center;verticalAlign=middle;resizable=0;points=[];autosize=1;strokeColor=#B09500;fillColor=#e3c800;fontStyle=1;fontFamily=Comic Sans MS;strokeWidth=2;fontColor=#000000;" vertex="1" parent="1">
          <mxGeometry x="1451" y="540" width="40" height="30" as="geometry" />
        </mxCell>
        <mxCell id="eFA8QRlCZNBP7HLmfmJn-32" value="[5]" style="text;html=1;align=center;verticalAlign=middle;resizable=0;points=[];autosize=1;strokeColor=#B09500;fillColor=#e3c800;fontStyle=1;fontFamily=Comic Sans MS;strokeWidth=2;fontColor=#000000;" vertex="1" parent="1">
          <mxGeometry x="1516" y="540" width="40" height="30" as="geometry" />
        </mxCell>
        <mxCell id="eFA8QRlCZNBP7HLmfmJn-40" style="rounded=0;orthogonalLoop=1;jettySize=auto;html=1;" edge="1" parent="1" source="eFA8QRlCZNBP7HLmfmJn-33" target="eFA8QRlCZNBP7HLmfmJn-31">
          <mxGeometry relative="1" as="geometry" />
        </mxCell>
        <mxCell id="eFA8QRlCZNBP7HLmfmJn-41" style="rounded=0;orthogonalLoop=1;jettySize=auto;html=1;" edge="1" parent="1" source="eFA8QRlCZNBP7HLmfmJn-33" target="eFA8QRlCZNBP7HLmfmJn-32">
          <mxGeometry relative="1" as="geometry" />
        </mxCell>
        <mxCell id="eFA8QRlCZNBP7HLmfmJn-33" value="[2]" style="text;html=1;align=center;verticalAlign=middle;resizable=0;points=[];autosize=1;strokeColor=#B09500;fillColor=#e3c800;fontStyle=1;fontFamily=Comic Sans MS;strokeWidth=2;fontColor=#000000;" vertex="1" parent="1">
          <mxGeometry x="1476" y="480" width="40" height="30" as="geometry" />
        </mxCell>
        <mxCell id="eFA8QRlCZNBP7HLmfmJn-42" value="-4" style="rounded=0;whiteSpace=wrap;html=1;fontStyle=1;fontFamily=Comic Sans MS;strokeWidth=2;" vertex="1" parent="1">
          <mxGeometry x="1160" y="661" width="40" height="40" as="geometry" />
        </mxCell>
        <mxCell id="eFA8QRlCZNBP7HLmfmJn-43" value="-3" style="rounded=0;whiteSpace=wrap;html=1;fontStyle=1;fontFamily=Comic Sans MS;strokeWidth=2;" vertex="1" parent="1">
          <mxGeometry x="1200" y="661" width="40" height="40" as="geometry" />
        </mxCell>
        <mxCell id="eFA8QRlCZNBP7HLmfmJn-44" value="-3" style="rounded=0;whiteSpace=wrap;html=1;fontStyle=1;fontFamily=Comic Sans MS;strokeWidth=2;" vertex="1" parent="1">
          <mxGeometry x="1240" y="661" width="40" height="40" as="geometry" />
        </mxCell>
        <mxCell id="eFA8QRlCZNBP7HLmfmJn-64" style="edgeStyle=orthogonalEdgeStyle;rounded=0;orthogonalLoop=1;jettySize=auto;html=1;exitX=0.5;exitY=0;exitDx=0;exitDy=0;entryX=0.75;entryY=0;entryDx=0;entryDy=0;" edge="1" parent="1" source="eFA8QRlCZNBP7HLmfmJn-45" target="eFA8QRlCZNBP7HLmfmJn-44">
          <mxGeometry relative="1" as="geometry">
            <Array as="points">
              <mxPoint x="1300" y="641" />
              <mxPoint x="1270" y="641" />
            </Array>
          </mxGeometry>
        </mxCell>
        <mxCell id="eFA8QRlCZNBP7HLmfmJn-45" value="[2]" style="rounded=0;whiteSpace=wrap;html=1;fontStyle=1;fontFamily=Comic Sans MS;strokeWidth=2;fillColor=#e3c800;fontColor=#000000;strokeColor=#B09500;" vertex="1" parent="1">
          <mxGeometry x="1280" y="661" width="40" height="40" as="geometry" />
        </mxCell>
        <mxCell id="eFA8QRlCZNBP7HLmfmJn-66" style="edgeStyle=orthogonalEdgeStyle;rounded=0;orthogonalLoop=1;jettySize=auto;html=1;exitX=0.5;exitY=1;exitDx=0;exitDy=0;entryX=0.5;entryY=1;entryDx=0;entryDy=0;" edge="1" parent="1" source="eFA8QRlCZNBP7HLmfmJn-46" target="eFA8QRlCZNBP7HLmfmJn-43">
          <mxGeometry relative="1" as="geometry">
            <Array as="points">
              <mxPoint x="1340" y="741" />
              <mxPoint x="1220" y="741" />
            </Array>
          </mxGeometry>
        </mxCell>
        <mxCell id="eFA8QRlCZNBP7HLmfmJn-46" value="[1]" style="rounded=0;whiteSpace=wrap;html=1;fontStyle=1;fontFamily=Comic Sans MS;strokeWidth=2;fillColor=#0050ef;fontColor=#ffffff;strokeColor=#001DBC;" vertex="1" parent="1">
          <mxGeometry x="1320" y="661" width="40" height="40" as="geometry" />
        </mxCell>
        <mxCell id="eFA8QRlCZNBP7HLmfmJn-65" style="edgeStyle=orthogonalEdgeStyle;rounded=0;orthogonalLoop=1;jettySize=auto;html=1;exitX=0.5;exitY=0;exitDx=0;exitDy=0;entryX=0.25;entryY=0;entryDx=0;entryDy=0;" edge="1" parent="1" source="eFA8QRlCZNBP7HLmfmJn-47" target="eFA8QRlCZNBP7HLmfmJn-44">
          <mxGeometry relative="1" as="geometry">
            <Array as="points">
              <mxPoint x="1380" y="631" />
              <mxPoint x="1250" y="631" />
            </Array>
          </mxGeometry>
        </mxCell>
        <mxCell id="eFA8QRlCZNBP7HLmfmJn-47" value="[2]" style="rounded=0;whiteSpace=wrap;html=1;fontStyle=1;fontFamily=Comic Sans MS;strokeWidth=2;fillColor=#e3c800;fontColor=#000000;strokeColor=#B09500;" vertex="1" parent="1">
          <mxGeometry x="1360" y="661" width="40" height="40" as="geometry" />
        </mxCell>
        <mxCell id="eFA8QRlCZNBP7HLmfmJn-68" style="edgeStyle=orthogonalEdgeStyle;rounded=0;orthogonalLoop=1;jettySize=auto;html=1;exitX=0.5;exitY=0;exitDx=0;exitDy=0;entryX=0.25;entryY=0;entryDx=0;entryDy=0;" edge="1" parent="1" source="eFA8QRlCZNBP7HLmfmJn-48" target="eFA8QRlCZNBP7HLmfmJn-42">
          <mxGeometry relative="1" as="geometry">
            <Array as="points">
              <mxPoint x="1420" y="611" />
              <mxPoint x="1170" y="611" />
            </Array>
          </mxGeometry>
        </mxCell>
        <mxCell id="eFA8QRlCZNBP7HLmfmJn-48" value="[0]" style="rounded=0;whiteSpace=wrap;html=1;fontStyle=1;fontFamily=Comic Sans MS;strokeWidth=2;fillColor=#a20025;fontColor=#ffffff;strokeColor=#6F0000;" vertex="1" parent="1">
          <mxGeometry x="1400" y="661" width="40" height="40" as="geometry" />
        </mxCell>
        <mxCell id="eFA8QRlCZNBP7HLmfmJn-69" style="edgeStyle=orthogonalEdgeStyle;rounded=0;orthogonalLoop=1;jettySize=auto;html=1;exitX=0.5;exitY=0;exitDx=0;exitDy=0;entryX=0.5;entryY=0;entryDx=0;entryDy=0;" edge="1" parent="1" source="eFA8QRlCZNBP7HLmfmJn-49" target="eFA8QRlCZNBP7HLmfmJn-42">
          <mxGeometry relative="1" as="geometry">
            <Array as="points">
              <mxPoint x="1460" y="601" />
              <mxPoint x="1180" y="601" />
            </Array>
          </mxGeometry>
        </mxCell>
        <mxCell id="eFA8QRlCZNBP7HLmfmJn-49" value="[0]" style="rounded=0;whiteSpace=wrap;html=1;fontStyle=1;fontFamily=Comic Sans MS;strokeWidth=2;fillColor=#a20025;fontColor=#ffffff;strokeColor=#6F0000;" vertex="1" parent="1">
          <mxGeometry x="1440" y="661" width="40" height="40" as="geometry" />
        </mxCell>
        <mxCell id="eFA8QRlCZNBP7HLmfmJn-50" value="[0]" style="text;html=1;align=center;verticalAlign=middle;resizable=0;points=[];autosize=1;strokeColor=none;fillColor=none;fontStyle=1;fontFamily=Comic Sans MS;strokeWidth=2;" vertex="1" parent="1">
          <mxGeometry x="1160" y="701" width="40" height="30" as="geometry" />
        </mxCell>
        <mxCell id="eFA8QRlCZNBP7HLmfmJn-51" value="[1]" style="text;html=1;align=center;verticalAlign=middle;resizable=0;points=[];autosize=1;strokeColor=none;fillColor=none;fontStyle=1;fontFamily=Comic Sans MS;strokeWidth=2;" vertex="1" parent="1">
          <mxGeometry x="1200" y="701" width="40" height="30" as="geometry" />
        </mxCell>
        <mxCell id="eFA8QRlCZNBP7HLmfmJn-52" value="[2]" style="text;html=1;align=center;verticalAlign=middle;resizable=0;points=[];autosize=1;strokeColor=none;fillColor=none;fontStyle=1;fontFamily=Comic Sans MS;strokeWidth=2;" vertex="1" parent="1">
          <mxGeometry x="1240" y="701" width="40" height="30" as="geometry" />
        </mxCell>
        <mxCell id="eFA8QRlCZNBP7HLmfmJn-53" value="[3]" style="text;html=1;align=center;verticalAlign=middle;resizable=0;points=[];autosize=1;strokeColor=none;fillColor=none;fontStyle=1;fontFamily=Comic Sans MS;strokeWidth=2;" vertex="1" parent="1">
          <mxGeometry x="1280" y="701" width="40" height="30" as="geometry" />
        </mxCell>
        <mxCell id="eFA8QRlCZNBP7HLmfmJn-54" value="[4]" style="text;html=1;align=center;verticalAlign=middle;resizable=0;points=[];autosize=1;strokeColor=none;fillColor=none;fontStyle=1;fontFamily=Comic Sans MS;strokeWidth=2;" vertex="1" parent="1">
          <mxGeometry x="1320" y="701" width="40" height="30" as="geometry" />
        </mxCell>
        <mxCell id="eFA8QRlCZNBP7HLmfmJn-55" value="[5]" style="text;html=1;align=center;verticalAlign=middle;resizable=0;points=[];autosize=1;strokeColor=none;fillColor=none;fontStyle=1;fontFamily=Comic Sans MS;strokeWidth=2;" vertex="1" parent="1">
          <mxGeometry x="1360" y="701" width="40" height="30" as="geometry" />
        </mxCell>
        <mxCell id="eFA8QRlCZNBP7HLmfmJn-56" value="[6]" style="text;html=1;align=center;verticalAlign=middle;resizable=0;points=[];autosize=1;strokeColor=none;fillColor=none;fontStyle=1;fontFamily=Comic Sans MS;strokeWidth=2;" vertex="1" parent="1">
          <mxGeometry x="1400" y="701" width="40" height="30" as="geometry" />
        </mxCell>
        <mxCell id="eFA8QRlCZNBP7HLmfmJn-57" value="[7]" style="text;html=1;align=center;verticalAlign=middle;resizable=0;points=[];autosize=1;strokeColor=none;fillColor=none;fontStyle=1;fontFamily=Comic Sans MS;strokeWidth=2;" vertex="1" parent="1">
          <mxGeometry x="1440" y="701" width="40" height="30" as="geometry" />
        </mxCell>
        <mxCell id="eFA8QRlCZNBP7HLmfmJn-70" style="edgeStyle=orthogonalEdgeStyle;rounded=0;orthogonalLoop=1;jettySize=auto;html=1;exitX=0.5;exitY=0;exitDx=0;exitDy=0;entryX=0.75;entryY=0;entryDx=0;entryDy=0;" edge="1" parent="1" source="eFA8QRlCZNBP7HLmfmJn-58" target="eFA8QRlCZNBP7HLmfmJn-42">
          <mxGeometry relative="1" as="geometry">
            <Array as="points">
              <mxPoint x="1500" y="591" />
              <mxPoint x="1190" y="591" />
            </Array>
          </mxGeometry>
        </mxCell>
        <mxCell id="eFA8QRlCZNBP7HLmfmJn-58" value="[0]" style="rounded=0;whiteSpace=wrap;html=1;fontStyle=1;fontFamily=Comic Sans MS;strokeWidth=2;fillColor=#a20025;fontColor=#ffffff;strokeColor=#6F0000;" vertex="1" parent="1">
          <mxGeometry x="1480" y="661" width="40" height="40" as="geometry" />
        </mxCell>
        <mxCell id="eFA8QRlCZNBP7HLmfmJn-67" style="edgeStyle=orthogonalEdgeStyle;rounded=0;orthogonalLoop=1;jettySize=auto;html=1;exitX=0.5;exitY=1;exitDx=0;exitDy=0;entryX=0.5;entryY=1;entryDx=0;entryDy=0;" edge="1" parent="1" source="eFA8QRlCZNBP7HLmfmJn-59" target="eFA8QRlCZNBP7HLmfmJn-42">
          <mxGeometry relative="1" as="geometry">
            <Array as="points">
              <mxPoint x="1540" y="751" />
              <mxPoint x="1180" y="751" />
            </Array>
          </mxGeometry>
        </mxCell>
        <mxCell id="eFA8QRlCZNBP7HLmfmJn-59" value="[1]" style="rounded=0;whiteSpace=wrap;html=1;fontStyle=1;fontFamily=Comic Sans MS;strokeWidth=2;fillColor=#0050ef;fontColor=#ffffff;strokeColor=#001DBC;" vertex="1" parent="1">
          <mxGeometry x="1520" y="661" width="40" height="40" as="geometry" />
        </mxCell>
        <mxCell id="eFA8QRlCZNBP7HLmfmJn-60" value="[8]" style="text;html=1;align=center;verticalAlign=middle;resizable=0;points=[];autosize=1;strokeColor=none;fillColor=none;fontStyle=1;fontFamily=Comic Sans MS;strokeWidth=2;" vertex="1" parent="1">
          <mxGeometry x="1480" y="701" width="40" height="30" as="geometry" />
        </mxCell>
        <mxCell id="eFA8QRlCZNBP7HLmfmJn-61" value="[9]" style="text;html=1;align=center;verticalAlign=middle;resizable=0;points=[];autosize=1;strokeColor=none;fillColor=none;fontStyle=1;fontFamily=Comic Sans MS;strokeWidth=2;" vertex="1" parent="1">
          <mxGeometry x="1520" y="701" width="40" height="30" as="geometry" />
        </mxCell>
        <mxCell id="eFA8QRlCZNBP7HLmfmJn-71" style="rounded=0;orthogonalLoop=1;jettySize=auto;html=1;" edge="1" parent="1" source="eFA8QRlCZNBP7HLmfmJn-74" target="eFA8QRlCZNBP7HLmfmJn-75">
          <mxGeometry relative="1" as="geometry" />
        </mxCell>
        <mxCell id="eFA8QRlCZNBP7HLmfmJn-72" style="rounded=0;orthogonalLoop=1;jettySize=auto;html=1;" edge="1" parent="1" source="eFA8QRlCZNBP7HLmfmJn-74" target="eFA8QRlCZNBP7HLmfmJn-76">
          <mxGeometry relative="1" as="geometry" />
        </mxCell>
        <mxCell id="eFA8QRlCZNBP7HLmfmJn-73" style="rounded=0;orthogonalLoop=1;jettySize=auto;html=1;" edge="1" parent="1" source="eFA8QRlCZNBP7HLmfmJn-74" target="eFA8QRlCZNBP7HLmfmJn-77">
          <mxGeometry relative="1" as="geometry" />
        </mxCell>
        <mxCell id="eFA8QRlCZNBP7HLmfmJn-74" value="[0]" style="text;html=1;align=center;verticalAlign=middle;resizable=0;points=[];autosize=1;strokeColor=#6F0000;fillColor=#a20025;fontStyle=1;fontFamily=Comic Sans MS;strokeWidth=2;fontColor=#ffffff;" vertex="1" parent="1">
          <mxGeometry x="1220" y="880" width="40" height="30" as="geometry" />
        </mxCell>
        <mxCell id="eFA8QRlCZNBP7HLmfmJn-75" value="[6]" style="text;html=1;align=center;verticalAlign=middle;resizable=0;points=[];autosize=1;strokeColor=#6F0000;fillColor=#a20025;fontStyle=1;fontFamily=Comic Sans MS;strokeWidth=2;fontColor=#ffffff;" vertex="1" parent="1">
          <mxGeometry x="1170" y="940" width="40" height="30" as="geometry" />
        </mxCell>
        <mxCell id="eFA8QRlCZNBP7HLmfmJn-76" value="[7]" style="text;html=1;align=center;verticalAlign=middle;resizable=0;points=[];autosize=1;strokeColor=#6F0000;fillColor=#a20025;fontStyle=1;fontFamily=Comic Sans MS;strokeWidth=2;fontColor=#ffffff;" vertex="1" parent="1">
          <mxGeometry x="1230" y="940" width="40" height="30" as="geometry" />
        </mxCell>
        <mxCell id="eFA8QRlCZNBP7HLmfmJn-77" value="[8]" style="text;html=1;align=center;verticalAlign=middle;resizable=0;points=[];autosize=1;strokeColor=#6F0000;fillColor=#a20025;fontStyle=1;fontFamily=Comic Sans MS;strokeWidth=2;fontColor=#ffffff;" vertex="1" parent="1">
          <mxGeometry x="1280" y="940" width="40" height="30" as="geometry" />
        </mxCell>
        <mxCell id="eFA8QRlCZNBP7HLmfmJn-78" style="rounded=0;orthogonalLoop=1;jettySize=auto;html=1;" edge="1" parent="1" source="eFA8QRlCZNBP7HLmfmJn-80" target="eFA8QRlCZNBP7HLmfmJn-81">
          <mxGeometry relative="1" as="geometry" />
        </mxCell>
        <mxCell id="eFA8QRlCZNBP7HLmfmJn-79" style="rounded=0;orthogonalLoop=1;jettySize=auto;html=1;" edge="1" parent="1" source="eFA8QRlCZNBP7HLmfmJn-80" target="eFA8QRlCZNBP7HLmfmJn-82">
          <mxGeometry relative="1" as="geometry" />
        </mxCell>
        <mxCell id="eFA8QRlCZNBP7HLmfmJn-80" value="[1]" style="text;html=1;align=center;verticalAlign=middle;resizable=0;points=[];autosize=1;strokeColor=#001DBC;fillColor=#0050ef;fontStyle=1;fontFamily=Comic Sans MS;strokeWidth=2;fontColor=#ffffff;" vertex="1" parent="1">
          <mxGeometry x="1350" y="920" width="40" height="30" as="geometry" />
        </mxCell>
        <mxCell id="eFA8QRlCZNBP7HLmfmJn-81" value="[4]" style="text;html=1;align=center;verticalAlign=middle;resizable=0;points=[];autosize=1;strokeColor=#001DBC;fillColor=#0050ef;fontStyle=1;fontFamily=Comic Sans MS;strokeWidth=2;fontColor=#ffffff;" vertex="1" parent="1">
          <mxGeometry x="1310" y="980" width="40" height="30" as="geometry" />
        </mxCell>
        <mxCell id="eFA8QRlCZNBP7HLmfmJn-82" value="[9]" style="text;html=1;align=center;verticalAlign=middle;resizable=0;points=[];autosize=1;strokeColor=#001DBC;fillColor=#0050ef;fontStyle=1;fontFamily=Comic Sans MS;strokeWidth=2;fontColor=#ffffff;" vertex="1" parent="1">
          <mxGeometry x="1380" y="980" width="40" height="30" as="geometry" />
        </mxCell>
        <mxCell id="eFA8QRlCZNBP7HLmfmJn-83" value="[3]" style="text;html=1;align=center;verticalAlign=middle;resizable=0;points=[];autosize=1;strokeColor=#B09500;fillColor=#e3c800;fontStyle=1;fontFamily=Comic Sans MS;strokeWidth=2;fontColor=#000000;" vertex="1" parent="1">
          <mxGeometry x="1451" y="980" width="40" height="30" as="geometry" />
        </mxCell>
        <mxCell id="eFA8QRlCZNBP7HLmfmJn-84" value="[5]" style="text;html=1;align=center;verticalAlign=middle;resizable=0;points=[];autosize=1;strokeColor=#B09500;fillColor=#e3c800;fontStyle=1;fontFamily=Comic Sans MS;strokeWidth=2;fontColor=#000000;" vertex="1" parent="1">
          <mxGeometry x="1516" y="980" width="40" height="30" as="geometry" />
        </mxCell>
        <mxCell id="eFA8QRlCZNBP7HLmfmJn-85" style="rounded=0;orthogonalLoop=1;jettySize=auto;html=1;" edge="1" parent="1" source="eFA8QRlCZNBP7HLmfmJn-87" target="eFA8QRlCZNBP7HLmfmJn-83">
          <mxGeometry relative="1" as="geometry" />
        </mxCell>
        <mxCell id="eFA8QRlCZNBP7HLmfmJn-86" style="rounded=0;orthogonalLoop=1;jettySize=auto;html=1;" edge="1" parent="1" source="eFA8QRlCZNBP7HLmfmJn-87" target="eFA8QRlCZNBP7HLmfmJn-84">
          <mxGeometry relative="1" as="geometry" />
        </mxCell>
        <mxCell id="eFA8QRlCZNBP7HLmfmJn-87" value="[2]" style="text;html=1;align=center;verticalAlign=middle;resizable=0;points=[];autosize=1;strokeColor=#B09500;fillColor=#e3c800;fontStyle=1;fontFamily=Comic Sans MS;strokeWidth=2;fontColor=#000000;" vertex="1" parent="1">
          <mxGeometry x="1476" y="920" width="40" height="30" as="geometry" />
        </mxCell>
        <mxCell id="eFA8QRlCZNBP7HLmfmJn-88" value="&lt;font color=&quot;#ff0000&quot;&gt;-7&lt;/font&gt;" style="rounded=0;whiteSpace=wrap;html=1;fontStyle=1;fontFamily=Comic Sans MS;strokeWidth=2;" vertex="1" parent="1">
          <mxGeometry x="1160" y="1101" width="40" height="40" as="geometry" />
        </mxCell>
        <mxCell id="eFA8QRlCZNBP7HLmfmJn-89" value="[0]" style="rounded=0;whiteSpace=wrap;html=1;fontStyle=1;fontFamily=Comic Sans MS;strokeWidth=2;fillColor=#e51400;fontColor=#ffffff;strokeColor=#B20000;" vertex="1" parent="1">
          <mxGeometry x="1200" y="1101" width="40" height="40" as="geometry" />
        </mxCell>
        <mxCell id="eFA8QRlCZNBP7HLmfmJn-90" value="-3" style="rounded=0;whiteSpace=wrap;html=1;fontStyle=1;fontFamily=Comic Sans MS;strokeWidth=2;" vertex="1" parent="1">
          <mxGeometry x="1240" y="1101" width="40" height="40" as="geometry" />
        </mxCell>
        <mxCell id="eFA8QRlCZNBP7HLmfmJn-91" style="edgeStyle=orthogonalEdgeStyle;rounded=0;orthogonalLoop=1;jettySize=auto;html=1;exitX=0.5;exitY=0;exitDx=0;exitDy=0;entryX=0.75;entryY=0;entryDx=0;entryDy=0;" edge="1" parent="1" source="eFA8QRlCZNBP7HLmfmJn-92" target="eFA8QRlCZNBP7HLmfmJn-90">
          <mxGeometry relative="1" as="geometry">
            <Array as="points">
              <mxPoint x="1300" y="1081" />
              <mxPoint x="1270" y="1081" />
            </Array>
          </mxGeometry>
        </mxCell>
        <mxCell id="eFA8QRlCZNBP7HLmfmJn-92" value="[2]" style="rounded=0;whiteSpace=wrap;html=1;fontStyle=1;fontFamily=Comic Sans MS;strokeWidth=2;fillColor=#e3c800;fontColor=#000000;strokeColor=#B09500;" vertex="1" parent="1">
          <mxGeometry x="1280" y="1101" width="40" height="40" as="geometry" />
        </mxCell>
        <mxCell id="eFA8QRlCZNBP7HLmfmJn-93" style="edgeStyle=orthogonalEdgeStyle;rounded=0;orthogonalLoop=1;jettySize=auto;html=1;exitX=0.5;exitY=1;exitDx=0;exitDy=0;entryX=0.5;entryY=1;entryDx=0;entryDy=0;" edge="1" parent="1" source="eFA8QRlCZNBP7HLmfmJn-94" target="eFA8QRlCZNBP7HLmfmJn-89">
          <mxGeometry relative="1" as="geometry">
            <Array as="points">
              <mxPoint x="1340" y="1181" />
              <mxPoint x="1220" y="1181" />
            </Array>
          </mxGeometry>
        </mxCell>
        <mxCell id="eFA8QRlCZNBP7HLmfmJn-94" value="[1]" style="rounded=0;whiteSpace=wrap;html=1;fontStyle=1;fontFamily=Comic Sans MS;strokeWidth=2;fillColor=#0050ef;fontColor=#ffffff;strokeColor=#001DBC;" vertex="1" parent="1">
          <mxGeometry x="1320" y="1101" width="40" height="40" as="geometry" />
        </mxCell>
        <mxCell id="eFA8QRlCZNBP7HLmfmJn-95" style="edgeStyle=orthogonalEdgeStyle;rounded=0;orthogonalLoop=1;jettySize=auto;html=1;exitX=0.5;exitY=0;exitDx=0;exitDy=0;entryX=0.25;entryY=0;entryDx=0;entryDy=0;" edge="1" parent="1" source="eFA8QRlCZNBP7HLmfmJn-96" target="eFA8QRlCZNBP7HLmfmJn-90">
          <mxGeometry relative="1" as="geometry">
            <Array as="points">
              <mxPoint x="1380" y="1071" />
              <mxPoint x="1250" y="1071" />
            </Array>
          </mxGeometry>
        </mxCell>
        <mxCell id="eFA8QRlCZNBP7HLmfmJn-96" value="[2]" style="rounded=0;whiteSpace=wrap;html=1;fontStyle=1;fontFamily=Comic Sans MS;strokeWidth=2;fillColor=#e3c800;fontColor=#000000;strokeColor=#B09500;" vertex="1" parent="1">
          <mxGeometry x="1360" y="1101" width="40" height="40" as="geometry" />
        </mxCell>
        <mxCell id="eFA8QRlCZNBP7HLmfmJn-97" style="edgeStyle=orthogonalEdgeStyle;rounded=0;orthogonalLoop=1;jettySize=auto;html=1;exitX=0.5;exitY=0;exitDx=0;exitDy=0;entryX=0.25;entryY=0;entryDx=0;entryDy=0;" edge="1" parent="1" source="eFA8QRlCZNBP7HLmfmJn-98" target="eFA8QRlCZNBP7HLmfmJn-88">
          <mxGeometry relative="1" as="geometry">
            <Array as="points">
              <mxPoint x="1420" y="1051" />
              <mxPoint x="1170" y="1051" />
            </Array>
          </mxGeometry>
        </mxCell>
        <mxCell id="eFA8QRlCZNBP7HLmfmJn-98" value="[0]" style="rounded=0;whiteSpace=wrap;html=1;fontStyle=1;fontFamily=Comic Sans MS;strokeWidth=2;fillColor=#a20025;fontColor=#ffffff;strokeColor=#6F0000;" vertex="1" parent="1">
          <mxGeometry x="1400" y="1101" width="40" height="40" as="geometry" />
        </mxCell>
        <mxCell id="eFA8QRlCZNBP7HLmfmJn-99" style="edgeStyle=orthogonalEdgeStyle;rounded=0;orthogonalLoop=1;jettySize=auto;html=1;exitX=0.5;exitY=0;exitDx=0;exitDy=0;entryX=0.5;entryY=0;entryDx=0;entryDy=0;" edge="1" parent="1" source="eFA8QRlCZNBP7HLmfmJn-100" target="eFA8QRlCZNBP7HLmfmJn-88">
          <mxGeometry relative="1" as="geometry">
            <Array as="points">
              <mxPoint x="1460" y="1041" />
              <mxPoint x="1180" y="1041" />
            </Array>
          </mxGeometry>
        </mxCell>
        <mxCell id="eFA8QRlCZNBP7HLmfmJn-100" value="[0]" style="rounded=0;whiteSpace=wrap;html=1;fontStyle=1;fontFamily=Comic Sans MS;strokeWidth=2;fillColor=#a20025;fontColor=#ffffff;strokeColor=#6F0000;" vertex="1" parent="1">
          <mxGeometry x="1440" y="1101" width="40" height="40" as="geometry" />
        </mxCell>
        <mxCell id="eFA8QRlCZNBP7HLmfmJn-101" value="[0]" style="text;html=1;align=center;verticalAlign=middle;resizable=0;points=[];autosize=1;strokeColor=none;fillColor=none;fontStyle=1;fontFamily=Comic Sans MS;strokeWidth=2;" vertex="1" parent="1">
          <mxGeometry x="1160" y="1141" width="40" height="30" as="geometry" />
        </mxCell>
        <mxCell id="eFA8QRlCZNBP7HLmfmJn-102" value="[1]" style="text;html=1;align=center;verticalAlign=middle;resizable=0;points=[];autosize=1;strokeColor=none;fillColor=none;fontStyle=1;fontFamily=Comic Sans MS;strokeWidth=2;" vertex="1" parent="1">
          <mxGeometry x="1200" y="1141" width="40" height="30" as="geometry" />
        </mxCell>
        <mxCell id="eFA8QRlCZNBP7HLmfmJn-103" value="[2]" style="text;html=1;align=center;verticalAlign=middle;resizable=0;points=[];autosize=1;strokeColor=none;fillColor=none;fontStyle=1;fontFamily=Comic Sans MS;strokeWidth=2;" vertex="1" parent="1">
          <mxGeometry x="1240" y="1141" width="40" height="30" as="geometry" />
        </mxCell>
        <mxCell id="eFA8QRlCZNBP7HLmfmJn-104" value="[3]" style="text;html=1;align=center;verticalAlign=middle;resizable=0;points=[];autosize=1;strokeColor=none;fillColor=none;fontStyle=1;fontFamily=Comic Sans MS;strokeWidth=2;" vertex="1" parent="1">
          <mxGeometry x="1280" y="1141" width="40" height="30" as="geometry" />
        </mxCell>
        <mxCell id="eFA8QRlCZNBP7HLmfmJn-105" value="[4]" style="text;html=1;align=center;verticalAlign=middle;resizable=0;points=[];autosize=1;strokeColor=none;fillColor=none;fontStyle=1;fontFamily=Comic Sans MS;strokeWidth=2;" vertex="1" parent="1">
          <mxGeometry x="1320" y="1141" width="40" height="30" as="geometry" />
        </mxCell>
        <mxCell id="eFA8QRlCZNBP7HLmfmJn-106" value="[5]" style="text;html=1;align=center;verticalAlign=middle;resizable=0;points=[];autosize=1;strokeColor=none;fillColor=none;fontStyle=1;fontFamily=Comic Sans MS;strokeWidth=2;" vertex="1" parent="1">
          <mxGeometry x="1360" y="1141" width="40" height="30" as="geometry" />
        </mxCell>
        <mxCell id="eFA8QRlCZNBP7HLmfmJn-107" value="[6]" style="text;html=1;align=center;verticalAlign=middle;resizable=0;points=[];autosize=1;strokeColor=none;fillColor=none;fontStyle=1;fontFamily=Comic Sans MS;strokeWidth=2;" vertex="1" parent="1">
          <mxGeometry x="1400" y="1141" width="40" height="30" as="geometry" />
        </mxCell>
        <mxCell id="eFA8QRlCZNBP7HLmfmJn-108" value="[7]" style="text;html=1;align=center;verticalAlign=middle;resizable=0;points=[];autosize=1;strokeColor=none;fillColor=none;fontStyle=1;fontFamily=Comic Sans MS;strokeWidth=2;" vertex="1" parent="1">
          <mxGeometry x="1440" y="1141" width="40" height="30" as="geometry" />
        </mxCell>
        <mxCell id="eFA8QRlCZNBP7HLmfmJn-109" style="edgeStyle=orthogonalEdgeStyle;rounded=0;orthogonalLoop=1;jettySize=auto;html=1;exitX=0.5;exitY=0;exitDx=0;exitDy=0;entryX=0.75;entryY=0;entryDx=0;entryDy=0;" edge="1" parent="1" source="eFA8QRlCZNBP7HLmfmJn-110" target="eFA8QRlCZNBP7HLmfmJn-88">
          <mxGeometry relative="1" as="geometry">
            <Array as="points">
              <mxPoint x="1500" y="1031" />
              <mxPoint x="1190" y="1031" />
            </Array>
          </mxGeometry>
        </mxCell>
        <mxCell id="eFA8QRlCZNBP7HLmfmJn-110" value="[0]" style="rounded=0;whiteSpace=wrap;html=1;fontStyle=1;fontFamily=Comic Sans MS;strokeWidth=2;fillColor=#a20025;fontColor=#ffffff;strokeColor=#6F0000;" vertex="1" parent="1">
          <mxGeometry x="1480" y="1101" width="40" height="40" as="geometry" />
        </mxCell>
        <mxCell id="eFA8QRlCZNBP7HLmfmJn-111" style="edgeStyle=orthogonalEdgeStyle;rounded=0;orthogonalLoop=1;jettySize=auto;html=1;exitX=0.5;exitY=1;exitDx=0;exitDy=0;entryX=0.5;entryY=1;entryDx=0;entryDy=0;" edge="1" parent="1" source="eFA8QRlCZNBP7HLmfmJn-112" target="eFA8QRlCZNBP7HLmfmJn-88">
          <mxGeometry relative="1" as="geometry">
            <Array as="points">
              <mxPoint x="1540" y="1191" />
              <mxPoint x="1180" y="1191" />
            </Array>
          </mxGeometry>
        </mxCell>
        <mxCell id="eFA8QRlCZNBP7HLmfmJn-112" value="[1]" style="rounded=0;whiteSpace=wrap;html=1;fontStyle=1;fontFamily=Comic Sans MS;strokeWidth=2;fillColor=#0050ef;fontColor=#ffffff;strokeColor=#001DBC;" vertex="1" parent="1">
          <mxGeometry x="1520" y="1101" width="40" height="40" as="geometry" />
        </mxCell>
        <mxCell id="eFA8QRlCZNBP7HLmfmJn-113" value="[8]" style="text;html=1;align=center;verticalAlign=middle;resizable=0;points=[];autosize=1;strokeColor=none;fillColor=none;fontStyle=1;fontFamily=Comic Sans MS;strokeWidth=2;" vertex="1" parent="1">
          <mxGeometry x="1480" y="1141" width="40" height="30" as="geometry" />
        </mxCell>
        <mxCell id="eFA8QRlCZNBP7HLmfmJn-114" value="[9]" style="text;html=1;align=center;verticalAlign=middle;resizable=0;points=[];autosize=1;strokeColor=none;fillColor=none;fontStyle=1;fontFamily=Comic Sans MS;strokeWidth=2;" vertex="1" parent="1">
          <mxGeometry x="1520" y="1141" width="40" height="30" as="geometry" />
        </mxCell>
        <mxCell id="eFA8QRlCZNBP7HLmfmJn-116" style="rounded=0;orthogonalLoop=1;jettySize=auto;html=1;entryX=0;entryY=0.5;entryDx=0;entryDy=0;entryPerimeter=0;" edge="1" parent="1" source="eFA8QRlCZNBP7HLmfmJn-74" target="eFA8QRlCZNBP7HLmfmJn-80">
          <mxGeometry relative="1" as="geometry" />
        </mxCell>
      </root>
    </mxGraphModel>
  </diagram>
</mxfile>
